<svg width="448" height="537" viewBox="0 0 448 537" fill="none" xmlns="http://www.w3.org/2000/svg">
<path d="M31.0101 69C31.0253 69.2643 31.0286 69.543 31.0205 69.8339C31.3683 83.6815 40.3927 84.1848 42.5432 84.0596C43.1051 84.0269 43.1977 83.9512 42.5432 84.0596C42.1813 84.1195 41.5912 84.2357 40.7259 84.4464C32.1878 86.5257 31.0101 108.804 31.0101 98.1106C31.0101 87.4169 21 84.7435 21 84.7435C26.8138 84.7435 30.8706 75.2087 31.0205 69.8339C31.0136 69.5611 31.0101 69.2832 31.0101 69Z" fill="#FFD600"/>
<path d="M55.3701 84C55.3797 84.1735 55.3818 84.3564 55.3767 84.5472C55.598 93.6347 61.3408 93.965 62.7093 93.8829C63.0669 93.8614 63.1258 93.8118 62.7093 93.8829C62.479 93.9222 62.1035 93.9984 61.5528 94.1367C56.1195 95.5013 55.3701 110.122 55.3701 103.104C55.3701 96.0861 49 94.3316 49 94.3316C52.6997 94.3316 55.2813 88.0745 55.3767 84.5472C55.3723 84.3682 55.3701 84.1859 55.3701 84Z" fill="#FFD600"/>
<rect width="250.791" height="126.953" transform="matrix(0.899845 -0.436211 0.86169 0.507435 45.999 424.396)" fill="#08061B"/>
<path d="M264.229 363.829C249.162 400.156 252.319 442.509 255.742 468.194L269.927 467.332C270.149 461.3 263.812 435.178 265.93 409.136C268.048 383.094 277.577 343.516 281.611 333.583C286.653 321.165 290.493 295.793 282.144 279.182C274.855 264.677 253.797 250.866 242.455 271.318C233.737 287.039 260.556 304.85 265.761 320.195C269.925 332.471 273.938 340.421 264.229 363.829Z" fill="#C0CEFF"/>
<path d="M98.758 215.494C106.476 233.502 129.575 279.54 140.16 300.309L158.249 297.897C146.19 274.985 123.729 224.498 124.372 215.494C125.176 204.239 103.068 197.396 103.068 185.739C103.068 174.082 118.745 174.484 130.803 169.259C142.862 164.033 143.264 140.317 130.803 134.69C112.898 126.603 93.5324 143.141 89.1108 160.023C84.6892 176.906 89.1108 192.984 98.758 215.494Z" fill="#E0C3DD"/>
<path d="M352.716 363.386C344.355 377.857 342.801 397.553 343.069 405.592C348.428 409.076 359.147 412.747 359.147 399.563C359.147 383.083 373.216 360.572 382.059 351.327C407.799 324.417 425.845 332.054 437.502 319.191C449.159 306.329 443.13 285.025 423.434 285.024C402.827 285.024 373.562 335.671 362.737 353.358C355.429 365.298 363.167 345.298 352.716 363.386Z" fill="#E0C3DD"/>
<path d="M320.984 367.996C305.87 383.11 306.647 414.49 308.925 428.291H315.356C315.088 420.519 314.484 402.5 320.984 391C328.059 378.483 345.504 360.359 358.768 351.918C372.033 343.476 373.734 315.914 376.404 291.054C382.835 231.161 368.014 178.102 341.082 175.288C314.15 172.475 313.697 213.475 341.082 206.809C361.47 201.846 375.845 280.43 362.737 311.152C349.874 341.299 339.876 349.104 320.984 367.996Z" fill="#9288FF"/>
<path d="M222.309 455.859C220.299 445.81 227.275 429.732 230.491 409.634L214.412 377.074C202.58 322.385 203.961 258.698 203.961 236.387C203.961 208.707 154.921 205.838 147.284 177.7C142.195 158.951 152.509 138.308 147.284 117.808C142.058 97.3074 101.884 92.8282 84.9795 78.013C53.6264 50.535 77.1562 10.6924 117.137 1.63985C157.073 -7.40284 214.541 22.2489 229.285 58.7189C244.559 96.5034 225.525 177.899 225.525 195.586C225.525 213.272 248.437 224.929 248.437 243.42C248.437 261.91 222.309 271.557 222.309 292.459C222.309 313.361 252.858 329.842 248.437 364.009C244.015 398.176 233.966 438.372 241.603 458.872L233.966 470.529C232.626 465.84 223.917 463.899 222.309 455.859Z" fill="#9288FF"/>
<path d="M355.612 113.168C405.898 138.622 411.887 229.335 397.818 284.404C388.892 319.344 362 352.5 325.062 421.072C325.062 421.072 316.275 424.149 312.2 428.308C336.853 372.435 394.017 296.5 388.19 226.924C386.78 210.081 385.353 186.527 361.199 177.869C339.935 170.247 303.758 170.247 295.277 144.908C287.11 120.51 319.435 94.8558 355.612 113.168Z" fill="#C0CEFF"/>
<path d="M162.92 446.599C173.854 462.356 171.227 481.302 168.548 488.805H211.156C205.394 481.57 193.871 465.25 193.871 457.854C193.871 448.609 207.538 436.148 204.724 416.854C201.911 397.559 168.548 406.805 157.293 374.245C146.038 341.686 193.871 250.622 193.871 228.734C193.871 196.191 154.921 175.288 130 206.239C110.362 230.628 142.862 270.956 136.833 288.642C131.959 302.939 117.452 293.862 113.519 312.358C111.55 321.619 107.088 333.662 100.656 331.652C94.2248 329.643 105.48 315.976 90.2051 304.319C71.6718 290.175 51.1197 322.311 60.8213 357.765C71.7148 397.575 149.253 426.903 162.92 446.599Z" fill="#C0CEFF"/>
<path d="M288.775 326.427C256.76 386.715 265.453 444.809 270.946 470.133L285.015 468.123C284.747 462.094 284.372 447.141 285.015 435.564C285.819 421.093 305.917 422.701 310.741 413.456C315.564 404.211 304.309 394.162 305.917 381.299C307.525 368.436 345.31 361.201 355.359 347.132C365.408 333.063 333.653 305.328 333.653 289.249C333.653 273.171 362.532 250.513 365.952 233.981C370.776 210.667 348.615 201.416 330.177 217.298C322.942 223.53 310.42 224.451 305.998 214C301.577 203.549 307.616 179.921 283.498 175.5C259.38 171.078 240.137 187.958 240.137 208.255C240.137 239 285.015 234.18 291.848 246.641C298.682 259.102 281.799 260.913 281.799 281.413C281.799 297.813 296.999 310.939 288.775 326.427Z" fill="#E0C3DD"/>
<path d="M209.217 448.901C206.323 460.156 212.835 475.028 216.453 481.058H231.325C229.986 476.368 226.904 464.979 225.296 456.94C223.286 446.891 232.531 427.397 235.747 407.299C238.963 387.201 219.668 391.822 216.453 374.537C213.237 357.253 228.512 352.027 235.747 333.537C242.982 315.047 241.375 276.056 219.668 259.576C197.962 243.095 162.188 264.801 158.168 302.988C154.148 341.174 222.884 393.43 222.884 411.518C222.884 429.606 212.835 434.832 209.217 448.901Z" fill="#E0C3DD"/>
<path d="M98.6466 430.937C113.117 437.771 115.293 450.421 116.499 466.5L161.999 493.5C161.999 493.5 167.728 472.34 158.137 447.418C146.536 417.271 82.1661 412.849 66.4895 394.761C52.2395 378.318 38.4759 320.011 56.8424 298.691C78.9909 272.981 104.878 292.607 127.388 280.146C149.898 267.685 143.265 215.485 92.6172 210.259C48.2272 205.679 26.0928 243.567 23.279 270.901C21.3166 289.964 30.3127 297.153 30.3127 323.211C30.3127 347.399 20.2636 356.172 25.4892 386.721C30.7147 417.271 84.1759 424.104 98.6466 430.937Z" fill="#9288FF"/>
<path d="M119.33 504.695L390.999 373L435.668 399.305L299.833 465.152L163.999 531L119.33 504.695Z" fill="#F9F4E8"/>
<path d="M90.4985 243.5C94.3321 243.5 94.4985 243.5 94.4985 243.5" stroke="#631C06" stroke-width="2" stroke-linecap="round" stroke-linejoin="round"/>
<path d="M119.998 241C124.498 237 127.498 239 127.498 239" stroke="#631C06" stroke-width="2" stroke-linecap="round" stroke-linejoin="round"/>
<path d="M63.9988 240C59.7988 236.8 56.9988 238.4 56.9988 238.4" stroke="#631C06" stroke-width="2" stroke-linecap="round" stroke-linejoin="round"/>
<path d="M131.999 55C132.681 56 134.812 58 137.882 58C140.952 58 142.572 56 142.999 55" stroke="#631C06" stroke-width="2" stroke-linecap="round" stroke-linejoin="round"/>
<path d="M153.999 55C154.681 56 156.812 58 159.882 58C162.952 58 164.572 56 164.999 55" stroke="#631C06" stroke-width="2" stroke-linecap="round" stroke-linejoin="round"/>
<path d="M122.999 66C126.083 71 135.722 81 149.602 81C163.482 81 170.808 71 172.735 66" stroke="#631C06" stroke-width="2" stroke-linecap="round" stroke-linejoin="round"/>
<path d="M122.999 66C126.083 71 135.722 81 149.602 81C163.482 81 170.808 71 172.735 66" stroke="#631C06" stroke-opacity="0.2" stroke-width="8" stroke-linecap="round" stroke-linejoin="round"/>
<path d="M104.999 369C105.805 370.333 108.324 373 111.952 373C115.58 373 117.495 370.333 117.999 369" stroke="#631C06" stroke-width="2" stroke-linecap="round" stroke-linejoin="round"/>
<path d="M104.999 369C105.805 370.333 108.324 373 111.952 373C115.58 373 117.495 370.333 117.999 369" stroke="#631C06" stroke-opacity="0.2" stroke-width="8" stroke-linecap="round" stroke-linejoin="round"/>
<circle cx="76.9988" cy="243" r="13" fill="white"/>
<circle cx="76.9988" cy="243" r="8" fill="#631C06"/>
<circle cx="107.999" cy="243" r="13" fill="white"/>
<path d="M302.999 322L305.999 325" stroke="#631C06" stroke-width="2" stroke-linecap="round" stroke-linejoin="round"/>
<path d="M318.999 322L315.999 325" stroke="#631C06" stroke-width="2" stroke-linecap="round" stroke-linejoin="round"/>
<path d="M310.999 319V323" stroke="#631C06" stroke-width="2" stroke-linecap="round" stroke-linejoin="round"/>
<path d="M322.999 322L325.999 325" stroke="#631C06" stroke-width="2" stroke-linecap="round" stroke-linejoin="round"/>
<path d="M338.999 322L335.999 325" stroke="#631C06" stroke-width="2" stroke-linecap="round" stroke-linejoin="round"/>
<path d="M330.999 319V323" stroke="#631C06" stroke-width="2" stroke-linecap="round" stroke-linejoin="round"/>
<circle cx="107.999" cy="243" r="8" fill="#631C06"/>
<circle cx="310.999" cy="330" r="8" fill="white"/>
<circle cx="312.999" cy="332" r="4" fill="#631C06"/>
<circle cx="330.999" cy="330" r="8" fill="white"/>
<circle cx="332.999" cy="332" r="4" fill="#631C06"/>
<path d="M109.999 149C110.495 148 112.045 146 114.278 146C116.51 146 117.688 148 117.999 149" stroke="#631C06" stroke-width="2" stroke-linecap="round" stroke-linejoin="round"/>
<path d="M123.999 149C124.495 148 126.045 146 128.278 146C130.51 146 131.688 148 131.999 149" stroke="#631C06" stroke-width="2" stroke-linecap="round" stroke-linejoin="round"/>
<path d="M116 158C116.682 157.667 118.814 157 121.884 157C124.954 157 126.574 157.667 127 158" stroke="#631C06" stroke-width="2" stroke-linecap="round" stroke-linejoin="round"/>
<path d="M116 158C116.682 157.667 118.814 157 121.884 157C124.954 157 126.574 157.667 127 158" stroke="#631C06" stroke-opacity="0.2" stroke-width="8" stroke-linecap="round" stroke-linejoin="round"/>
<path d="M85.9988 260C86.8507 261.333 89.5129 264 93.3464 264C97.1799 264 99.2032 261.333 99.7356 260" stroke="#631C06" stroke-width="2" stroke-linecap="round" stroke-linejoin="round"/>
<path d="M85.9988 260C86.8507 261.333 89.5129 264 93.3464 264C97.1799 264 99.2032 261.333 99.7356 260" stroke="#631C06" stroke-opacity="0.2" stroke-width="8" stroke-linecap="round" stroke-linejoin="round"/>
<path d="M319 344C319.496 344 320.767 344 323 344C325.233 344 326.69 344 327 344" stroke="#631C06" stroke-width="2" stroke-linecap="round" stroke-linejoin="round"/>
<path d="M319 344C319.496 344.667 321.267 344 323.5 344C325.733 344 326.69 344.667 327 344" stroke="#631C06" stroke-opacity="0.2" stroke-width="8" stroke-linecap="round" stroke-linejoin="round"/>
<path d="M317.999 123C312.476 123 307.999 127.477 307.999 133H327.999C327.999 127.477 323.522 123 317.999 123Z" fill="white"/>
<circle cx="319.249" cy="128" r="3.75" fill="#631C06"/>
<path d="M339.999 123C334.476 123 329.999 127.477 329.999 133H349.999C349.999 127.477 345.522 123 339.999 123Z" fill="white"/>
<circle cx="341.249" cy="128" r="3.75" fill="#631C06"/>
<path d="M327.999 141C328.805 140.667 331.324 140 334.952 140C338.58 140 340.495 140.667 340.999 141" stroke="#631C06" stroke-width="2" stroke-linecap="round" stroke-linejoin="round"/>
<path d="M114.999 348L117.999 351" stroke="#631C06" stroke-width="2" stroke-linecap="round" stroke-linejoin="round"/>
<path d="M130.999 348L127.999 351" stroke="#631C06" stroke-width="2" stroke-linecap="round" stroke-linejoin="round"/>
<path d="M122.999 345V349" stroke="#631C06" stroke-width="2" stroke-linecap="round" stroke-linejoin="round"/>
<path d="M198.998 289C193.475 289 188.998 293.477 188.998 299H208.998C208.998 293.477 204.521 289 198.998 289Z" fill="white"/>
<circle cx="200.248" cy="294" r="3.75" fill="#631C06"/>
<path d="M220.998 289C215.475 289 210.998 293.477 210.998 299H230.998C230.998 293.477 226.521 289 220.998 289Z" fill="white"/>
<circle cx="222.248" cy="294" r="3.75" fill="#631C06"/>
<path d="M122.999 348C117.476 348 112.999 352.477 112.999 358H132.999C132.999 352.477 128.521 348 122.999 348Z" fill="white"/>
<circle cx="121.249" cy="353" r="3.75" fill="#631C06"/>
<path d="M93.9988 354C94.6809 355 96.8127 357 99.8825 357C102.952 357 104.572 355 104.999 354" stroke="#631C06" stroke-width="2" stroke-linecap="round" stroke-linejoin="round"/>
<path d="M93 358L96 356" stroke="#631C06" stroke-width="2" stroke-linecap="round" stroke-linejoin="round"/>
<path d="M107 358L104 356" stroke="#631C06" stroke-width="2" stroke-linecap="round" stroke-linejoin="round"/>
<path d="M100 360V357" stroke="#631C06" stroke-width="2" stroke-linecap="round" stroke-linejoin="round"/>
<path d="M190.483 284.773C190.648 284.302 191.344 283.156 192.81 282.348C194.276 281.539 195.372 281.696 195.737 281.876" stroke="#631C06" stroke-width="2" stroke-linecap="round" stroke-linejoin="round"/>
<path d="M222.886 282.289C223.352 282.109 224.676 281.899 226.241 282.493C227.807 283.088 228.396 284.025 228.495 284.419" stroke="#631C06" stroke-width="2" stroke-linecap="round" stroke-linejoin="round"/>
<path d="M309.615 120.387C309.779 119.915 310.476 118.77 311.942 117.961C313.408 117.153 314.504 117.31 314.868 117.489" stroke="#631C06" stroke-width="2" stroke-linecap="round" stroke-linejoin="round"/>
<path d="M342.018 117.902C342.484 117.723 343.808 117.512 345.373 118.107C346.938 118.702 347.528 119.639 347.627 120.033" stroke="#631C06" stroke-width="2" stroke-linecap="round" stroke-linejoin="round"/>
<path d="M337.747 77.6432L338.095 75.4446C338.314 74.0619 338.662 72.9405 339.138 72.0804C339.647 71.1971 340.216 70.4651 340.847 69.8846C341.505 69.3085 342.153 68.8015 342.789 68.3637C343.645 67.7906 344.416 67.2181 345.102 66.6464C345.792 66.047 346.225 65.1942 346.4 64.088C346.54 63.203 346.332 62.4613 345.775 61.8627C345.249 61.2409 344.669 60.8796 344.033 60.7789C343.231 60.6519 342.522 60.7381 341.908 61.0377C341.326 61.314 340.809 61.7141 340.357 62.2379C339.933 62.7661 339.547 63.3285 339.197 63.9251L334.781 60.9295C335.026 60.458 335.417 59.8679 335.955 59.1593C336.492 58.4506 337.195 57.7682 338.065 57.1122C338.962 56.4605 340.019 55.9617 341.236 55.6158C342.481 55.2743 343.905 55.2306 345.509 55.4847C347.085 55.7343 348.452 56.2343 349.609 56.9845C350.798 57.7114 351.676 58.701 352.243 59.9531C352.814 61.1776 352.956 62.7024 352.667 64.5277C352.426 66.0487 352.023 67.2465 351.46 68.1211C350.896 68.9957 350.257 69.7166 349.544 70.284C348.834 70.8237 348.125 71.3634 347.416 71.9031C346.583 72.5083 345.816 73.2372 345.114 74.0899C344.416 74.9149 343.942 76.1156 343.693 77.6919L343.555 78.5631L337.747 77.6432ZM339.265 86.856C338.269 86.6984 337.495 86.3064 336.942 85.6802C336.393 85.0264 336.189 84.257 336.329 83.372C336.465 82.5147 336.897 81.846 337.625 81.366C338.381 80.8904 339.243 80.7292 340.211 80.8825C341.179 81.0358 341.921 81.451 342.437 82.1282C342.981 82.8097 343.186 83.5791 343.05 84.4364C342.91 85.3214 342.491 85.9922 341.795 86.4489C341.104 86.878 340.26 87.0137 339.265 86.856Z" fill="#E0C3DD"/>
<path d="M314.785 83.5156L314.074 81.8599C313.627 80.8185 313.381 79.9006 313.335 79.1059C313.302 78.2815 313.376 77.5344 313.557 76.8646C313.758 76.1858 313.983 75.5592 314.229 74.9845C314.568 74.2223 314.848 73.4974 315.071 72.8097C315.285 72.1011 315.213 71.3303 314.855 70.4973C314.569 69.8308 314.106 69.413 313.465 69.2439C312.837 69.045 312.284 69.0485 311.805 69.2542C311.201 69.5137 310.753 69.8786 310.462 70.3491C310.182 70.7898 310.001 71.287 309.918 71.8407C309.856 72.3854 309.834 72.9375 309.853 73.497L305.536 73.3533C305.5 72.9247 305.512 72.3518 305.574 71.6344C305.636 70.9171 305.823 70.1461 306.135 69.3214C306.468 68.4878 306.976 67.6897 307.66 66.9272C308.365 66.1558 309.321 65.5106 310.529 64.9917C311.716 64.4818 312.868 64.2338 313.984 64.2478C315.112 64.232 316.14 64.5303 317.069 65.1426C317.99 65.7341 318.745 66.7172 319.335 68.0917C319.827 69.2372 320.069 70.2311 320.061 71.0733C320.053 71.9156 319.927 72.6851 319.683 73.3818C319.431 74.0576 319.179 74.7334 318.926 75.4092C318.617 76.1833 318.407 77.0139 318.294 77.9009C318.173 78.7671 318.367 79.7938 318.877 80.9809L319.159 81.6369L314.785 83.5156ZM319.804 89.1679C319.054 89.4899 318.354 89.556 317.705 89.366C317.048 89.1553 316.575 88.7166 316.289 88.0502C316.012 87.4046 316.019 86.7602 316.31 86.1171C316.622 85.465 317.142 84.9824 317.871 84.6693C318.6 84.3562 319.288 84.3199 319.934 84.5605C320.601 84.7921 321.073 85.2307 321.35 85.8763C321.636 86.5428 321.64 87.1826 321.361 87.796C321.072 88.3885 320.553 88.8458 319.804 89.1679Z" fill="#C0CEFF"/>
<path d="M359.684 87.8763L360.549 86.2957C361.093 85.3016 361.664 84.5419 362.262 84.0165C362.891 83.482 363.525 83.0797 364.164 82.8094C364.823 82.5499 365.454 82.3402 366.059 82.1802C366.868 81.9771 367.612 81.7513 368.29 81.5028C368.98 81.2344 369.543 80.7025 369.978 79.9073C370.326 79.2711 370.37 78.6489 370.109 78.0406C369.878 77.4234 369.534 76.9896 369.077 76.7392C368.5 76.4235 367.937 76.2959 367.387 76.3565C366.868 76.4081 366.365 76.5719 365.878 76.8479C365.41 77.1348 364.962 77.4578 364.533 77.8171L361.985 74.3288C362.3 74.0363 362.76 73.6933 363.363 73.2999C363.966 72.9066 364.688 72.5785 365.53 72.3158C366.391 72.0639 367.333 71.9723 368.355 72.0409C369.397 72.1204 370.494 72.4759 371.647 73.1073C372.78 73.7278 373.686 74.4819 374.362 75.3694C375.07 76.2479 375.469 77.2417 375.56 78.3508C375.661 79.4399 375.352 80.6406 374.634 81.9528C374.035 83.0462 373.402 83.8493 372.733 84.362C372.065 84.8746 371.381 85.2498 370.683 85.4874C369.995 85.7052 369.307 85.9229 368.619 86.1407C367.819 86.3745 367.035 86.7206 366.268 87.1788C365.511 87.6172 364.822 88.403 364.202 89.5362L363.859 90.1624L359.684 87.8763ZM358.326 95.3117C357.61 94.9198 357.127 94.4098 356.876 93.7817C356.637 93.1336 356.691 92.4915 357.04 91.8553C357.377 91.239 357.889 90.8473 358.575 90.6802C359.28 90.524 359.981 90.6364 360.677 91.0174C361.373 91.3984 361.825 91.9174 362.034 92.5745C362.263 93.2424 362.208 93.8845 361.871 94.5008C361.522 95.137 361.021 95.5341 360.365 95.6922C359.721 95.8305 359.041 95.7036 358.326 95.3117Z" fill="#9188FF"/>
<circle cx="214" cy="308" r="5" fill="#F2A5BD" stroke="#631C06" stroke-width="2"/>
<path d="M32.2003 122C32.2278 122.479 32.2338 122.984 32.2191 123.511C32.8515 148.61 49.2594 149.523 53.1694 149.296C54.1912 149.236 54.3594 149.099 53.1694 149.296C52.5115 149.404 51.4385 149.615 49.8652 149.997C34.3415 153.765 32.2003 194.145 32.2003 174.763C32.2003 155.381 14 150.535 14 150.535C24.5705 150.535 31.9466 133.253 32.2191 123.511C32.2066 123.017 32.2003 122.513 32.2003 122Z" fill="#C0CEFF"/>
<path d="M13.1952 172C13.2151 172.355 13.2195 172.73 13.2088 173.121C13.6673 191.728 25.5631 192.405 28.3978 192.236C29.1386 192.192 29.2606 192.091 28.3978 192.236C27.9208 192.317 27.1429 192.473 26.0023 192.756C14.7476 195.55 13.1952 225.487 13.1952 211.117C13.1952 196.748 0 193.155 0 193.155C7.66359 193.155 13.0113 180.343 13.2088 173.121C13.1998 172.754 13.1952 172.381 13.1952 172Z" fill="#E0C3DD"/>
<ellipse cx="206" cy="108.5" rx="14" ry="28.5" fill="#D6D2FF"/>
<ellipse cx="202.5" cy="108.5" rx="10.5" ry="28.5" fill="#08061B"/>
<path d="M240.105 65C240.127 65.3717 240.131 65.7636 240.12 66.1727C240.61 85.6458 253.326 86.3537 256.356 86.1776C257.148 86.1316 257.279 86.0252 256.356 86.1776C255.846 86.2618 255.015 86.4252 253.796 86.7215C241.765 89.6456 240.105 120.975 240.105 105.937C240.105 90.8987 226 87.1392 226 87.1392C234.192 87.1392 239.909 73.731 240.12 66.1727C240.11 65.7891 240.105 65.3983 240.105 65Z" fill="#FFD600"/>
<path d="M253.1 27C253.114 27.2478 253.117 27.5091 253.11 27.7818C253.426 40.7639 261.63 41.2358 263.585 41.1184C264.096 41.0877 264.18 41.0168 263.585 41.1184C263.256 41.1746 262.719 41.2835 261.933 41.481C254.171 43.4304 253.1 64.3165 253.1 54.2912C253.1 44.2658 244 41.7595 244 41.7595C249.285 41.7595 252.973 32.8207 253.11 27.7818C253.103 27.5261 253.1 27.2655 253.1 27Z" fill="#FFD600"/>
<path d="M202.37 102C202.38 102.173 202.382 102.356 202.377 102.547C202.598 111.635 208.341 111.965 209.709 111.883C210.067 111.861 210.126 111.812 209.709 111.883C209.479 111.922 209.103 111.998 208.553 112.137C203.12 113.501 202.37 128.122 202.37 121.104C202.37 114.086 196 112.332 196 112.332C199.7 112.332 202.281 106.074 202.377 102.547C202.372 102.368 202.37 102.186 202.37 102Z" fill="#FFD600"/>
<path d="M182.46 369C182.468 369.14 182.47 369.288 182.466 369.443C182.655 376.8 187.578 377.067 188.751 377C189.057 376.983 189.108 376.943 188.751 377C188.553 377.032 188.232 377.094 187.76 377.206C183.102 378.311 182.46 390.146 182.46 384.465C182.46 378.784 177 377.364 177 377.364C180.171 377.364 182.384 372.298 182.466 369.443C182.462 369.298 182.46 369.15 182.46 369Z" fill="#FFD600"/>
<path d="M200.64 390C200.646 390.099 200.647 390.204 200.644 390.313C200.77 395.506 204.052 395.694 204.834 395.647C205.038 395.635 205.072 395.607 204.834 395.647C204.702 395.67 204.488 395.713 204.173 395.792C201.068 396.572 200.64 404.927 200.64 400.916C200.64 396.906 197 395.904 197 395.904C199.114 395.904 200.589 392.328 200.644 390.313C200.641 390.21 200.64 390.106 200.64 390Z" fill="#FFD600"/>
<path d="M246.64 422C246.646 422.099 246.647 422.204 246.644 422.313C246.77 427.506 250.052 427.694 250.834 427.647C251.038 427.635 251.072 427.607 250.834 427.647C250.702 427.67 250.488 427.713 250.173 427.792C247.068 428.572 246.64 436.927 246.64 432.916C246.64 428.906 243 427.904 243 427.904C245.114 427.904 246.589 424.328 246.644 422.313C246.641 422.21 246.64 422.106 246.64 422Z" fill="#FFD600"/>
<path d="M86.185 431C86.1899 431.083 86.1909 431.17 86.1883 431.261C86.299 435.588 89.1704 435.745 89.8546 435.706C90.0335 435.696 90.0629 435.672 89.8546 435.706C89.7395 435.725 89.5517 435.761 89.2764 435.827C86.5598 436.477 86.185 443.439 86.185 440.097C86.185 436.755 83 435.92 83 435.92C84.8498 435.92 86.1407 432.94 86.1883 431.261C86.1862 431.175 86.185 431.089 86.185 431Z" fill="#FFD600"/>
<path d="M259.005 331C259.013 331.132 259.014 331.272 259.01 331.417C259.184 338.341 263.696 338.592 264.772 338.53C265.053 338.513 265.099 338.476 264.772 338.53C264.591 338.56 264.296 338.618 263.863 338.723C259.594 339.763 259.005 350.902 259.005 345.555C259.005 340.208 254 338.872 254 338.872C256.907 338.872 258.935 334.104 259.01 331.417C259.007 331.281 259.005 331.142 259.005 331Z" fill="#FFD600"/>
<path d="M100.095 438C100.101 438.116 100.103 438.238 100.099 438.365C100.242 444.423 103.933 444.643 104.813 444.589C105.043 444.574 105.081 444.541 104.813 444.589C104.665 444.615 104.424 444.666 104.07 444.758C100.577 445.668 100.095 455.414 100.095 450.736C100.095 446.057 96 444.888 96 444.888C98.3784 444.888 100.038 440.716 100.099 438.365C100.096 438.245 100.095 438.124 100.095 438Z" fill="#FFD600"/>
<circle cx="256.5" cy="366.5" r="1.5" fill="#FFD600"/>
<circle cx="249.5" cy="403.5" r="1.5" fill="#FFD600"/>
<circle cx="213.5" cy="423.5" r="1.5" fill="#FFD600"/>
<circle cx="327.5" cy="388.5" r="1.5" fill="#FFD600"/>
<circle cx="368.5" cy="378.5" r="1.5" fill="#FFD600"/>
</svg>
